<svg width="32" height="32" viewBox="0 0 32 32" fill="none" xmlns="http://www.w3.org/2000/svg">
<g clip-path="url(#clip0_4080_58)">
<path d="M25 0H7C3.13401 0 0 3.13401 0 7V25C0 28.866 3.13401 32 7 32H25C28.866 32 32 28.866 32 25V7C32 3.13401 28.866 0 25 0Z" fill="#0E1909"/>
<path d="M25.3302 25.3301C30.4831 20.1772 30.4831 11.8227 25.3302 6.66975C26.59 7.92959 26.8469 9.97187 26.2498 12.313C27.6295 16.1568 26.7798 20.6212 23.7005 23.7005C20.6213 26.7797 16.1567 27.6295 12.313 26.2497C9.97186 26.8468 7.92962 26.59 6.66981 25.3301C11.8227 30.4831 20.1773 30.4831 25.3302 25.3301Z" fill="#DAFF01"/>
<path d="M8.29946 23.7005C7.12584 22.5269 6.27608 21.152 5.75021 19.687C5.15313 22.0281 5.40999 24.0703 6.66981 25.3301C7.92962 26.59 9.97186 26.8468 12.313 26.2497C10.8479 25.7239 9.47308 24.8741 8.29946 23.7005Z" fill="#DAFF01"/>
<path d="M6.66981 6.66975C1.51688 11.8227 1.51688 20.1772 6.66981 25.3301C5.40999 24.0703 5.15313 22.0281 5.75021 19.687C4.37045 15.8432 5.22023 11.3787 8.29949 8.29942C11.3787 5.22019 15.8432 4.37046 19.6869 5.75018C22.0281 5.15306 24.0704 5.40991 25.3302 6.66975C20.1773 1.51682 11.8227 1.51682 6.66981 6.66975Z" fill="#DAFF01"/>
<path d="M26.2498 12.313C26.8469 9.97187 26.59 7.92959 25.3302 6.66975C24.0704 5.40991 22.0281 5.15306 19.6869 5.75018C21.152 6.27605 22.5268 7.12581 23.7005 8.29945C24.8741 9.47309 25.7239 10.848 26.2498 12.313Z" fill="#DAFF01"/>
<path d="M12.694 12.694C12.5001 12.8879 12.3109 13.0832 12.1267 13.2795C13.3374 15.3543 13.0535 18.0613 11.2751 19.8397L12.1603 20.7248C13.9387 18.9464 16.6456 18.6626 18.7205 19.8733C18.9168 19.689 19.1121 19.4999 19.306 19.306C19.4999 19.1121 19.689 18.9168 19.8732 18.7205C18.6625 16.6457 18.9464 13.9387 20.7248 12.1603L19.8396 11.2752C18.0613 13.0535 15.3543 13.3374 13.2795 12.1267C13.0832 12.311 12.8879 12.5001 12.694 12.694Z" fill="#DAFF01"/>
<path d="M19.8235 20.7248L20.7248 19.8235C20.7205 19.8193 20.7162 19.815 20.712 19.8107C20.3798 19.4764 20.1003 19.1095 19.8732 18.7205C19.689 18.9168 19.4999 19.1121 19.306 19.306C19.1121 19.4999 18.9168 19.689 18.7205 19.8733C19.1095 20.1003 19.4763 20.3799 19.8107 20.712C19.8149 20.7162 19.8192 20.7205 19.8235 20.7248Z" fill="#DAFF01"/>
<path d="M12.1764 11.2752L11.2751 12.1764C11.2794 12.1807 11.2837 12.185 11.288 12.1893C11.6201 12.5236 11.8997 12.8904 12.1267 13.2795C12.3109 13.0832 12.5001 12.8879 12.694 12.694C12.8879 12.5001 13.0832 12.311 13.2795 12.1267C12.8904 11.8997 12.5236 11.6201 12.1893 11.288C12.185 11.2837 12.1807 11.2794 12.1764 11.2752Z" fill="#DAFF01"/>
<path fill-rule="evenodd" clip-rule="evenodd" d="M7.96618 17.2012C7.73682 16.7442 7.53857 16.285 7.37221 15.8277C8.29961 14.2168 9.54366 12.5873 11.0655 11.0655C12.5874 9.5436 14.2168 8.29955 15.8278 7.37215C17.1499 6.61106 18.4595 6.06325 19.6869 5.75018C21.152 6.27605 22.5268 7.12581 23.7005 8.29945C22.3033 6.90226 19.8519 6.87287 17.2013 7.96612C15.5386 8.65187 13.7976 9.77933 12.1893 11.288C12.5236 11.6201 12.8904 11.8997 13.2795 12.1267C15.3543 13.3374 18.0613 13.0535 19.8396 11.2752L20.7248 12.1603C18.9464 13.9387 18.6625 16.6457 19.8732 18.7205C20.1003 19.1095 20.3798 19.4764 20.712 19.8107C22.2206 18.2023 23.3481 16.4613 24.0338 14.7987C24.2632 15.2557 24.4614 15.7148 24.6278 16.1722C23.7004 17.7831 22.4563 19.4126 20.9345 20.9344C19.4126 22.4563 17.7832 23.7003 16.1722 24.6277C14.8501 25.3888 13.5404 25.9367 12.313 26.2497C10.8479 25.7239 9.47308 24.8741 8.29946 23.7005C9.69666 25.0977 12.1481 25.1271 14.7988 24.0338C16.4614 23.348 18.2023 22.2206 19.8107 20.712C19.4763 20.3799 19.1095 20.1003 18.7205 19.8733C16.6456 18.6626 13.9387 18.9464 12.1603 20.7248L11.2751 19.8397C13.0535 18.0613 13.3374 15.3543 12.1267 13.2795C11.8997 12.8904 11.6201 12.5236 11.288 12.1893C9.77936 13.7976 8.65193 15.5386 7.96618 17.2012Z" fill="#DAFF01"/>
</g>
<defs>
<clipPath id="clip0_4080_58">
<rect width="32" height="32" fill="white"/>
</clipPath>
</defs>
</svg>
