<svg width="433" height="85" viewBox="0 0 433 85" fill="none" xmlns="http://www.w3.org/2000/svg">
<path d="M104.216 75.6022L104.216 31.0048H97.5858V17.745H111.169V25.6685L114.565 25.6685C116.29 22.8657 118.58 20.6827 121.437 19.1195C124.348 17.5564 127.851 16.7748 131.948 16.7748C136.961 16.7748 141.192 17.8259 144.642 19.928C148.091 22.0302 150.706 24.9678 152.484 28.7409C154.263 32.514 155.152 36.9339 155.152 42.0006C155.152 47.0674 154.29 51.5142 152.565 55.3412C150.84 59.1143 148.334 62.0519 145.046 64.1541C141.758 66.2023 137.769 67.2265 133.08 67.2265C129.522 67.2265 126.477 66.5797 123.944 65.286C121.41 63.9385 119.416 62.0519 117.961 59.6264H117.637V75.6022H104.216ZM129.441 55.5838C133.538 55.5838 136.61 54.371 138.659 51.9454C140.707 49.5199 141.731 46.2049 141.731 42.0006C141.731 37.7963 140.707 34.4814 138.659 32.0558C136.61 29.6303 133.538 28.4175 129.441 28.4175C125.83 28.4175 122.946 29.4416 120.79 31.4899C118.688 33.4842 117.637 36.2601 117.637 39.8176V44.1836C117.637 47.7411 118.688 50.544 120.79 52.5922C122.946 54.5866 125.83 55.5838 129.441 55.5838Z" fill="#0E1909"/>
<path d="M164.775 66.2563V31.0048H158.145V17.745H171.728V27.2856H175.124C176.417 23.8898 178.465 21.3564 181.268 19.6855C184.071 18.0146 187.224 17.1791 190.728 17.1791L194.851 17.1791V28.8218H190.162C185.958 28.8218 182.858 30.0076 180.864 32.3792C178.924 34.7509 177.953 37.8772 177.953 41.7581V66.2563H164.775Z" fill="#0E1909"/>
<path d="M221.001 67.2265C215.773 67.2265 211.218 66.2023 207.337 64.1541C203.456 62.0519 200.465 59.1143 198.362 55.3412C196.26 51.5142 195.209 47.0135 195.209 41.8389C195.209 36.6644 196.233 32.2175 198.282 28.4984C200.33 24.7253 203.241 21.8415 207.014 19.8472C210.841 17.7989 215.341 16.7748 220.516 16.7748C225.583 16.7748 229.922 17.745 233.533 19.6855C237.198 21.6259 240.001 24.4019 241.942 28.0132C243.882 31.6246 244.852 35.9367 244.852 40.9496V45.4773L208.065 45.4773C208.604 49.0887 209.978 51.8376 212.188 53.7242C214.398 55.6107 217.309 56.554 220.92 56.554C223.777 56.554 226.041 56.0689 227.712 55.0986C229.383 54.1284 230.569 52.6461 231.269 50.6518L244.691 50.6518C243.613 55.8263 240.998 59.8959 236.848 62.8604C232.698 65.7711 227.415 67.2265 221.001 67.2265ZM208.388 36.5836H231.997C231.566 33.5112 230.38 31.2204 228.439 29.7111C226.499 28.148 223.885 27.3664 220.597 27.3664C217.309 27.3664 214.614 28.148 212.512 29.7111C210.463 31.2743 209.089 33.5651 208.388 36.5836Z" fill="#0E1909"/>
<path d="M272.5 67.3999C265.385 67.3999 259.752 65.9176 255.602 62.9531C251.505 59.9346 249.295 55.7303 248.972 50.3401H261.908C262.34 52.6579 263.445 54.3827 265.223 55.5147C267.056 56.6466 269.67 57.2125 273.066 57.2125C278.618 57.2125 281.394 55.6764 281.394 52.604C281.394 51.3643 280.962 50.394 280.1 49.6933C279.292 48.9387 277.917 48.3727 275.977 47.9954L265.142 45.8933C255.44 44.0067 250.589 39.4521 250.589 32.2293C250.589 27.5938 252.449 23.9015 256.168 21.1526C259.887 18.3497 265.035 16.9483 271.611 16.9483C278.133 16.9483 283.307 18.3767 287.134 21.2334C290.961 24.0902 293.063 28.0789 293.441 33.1995L280.504 33.1995C279.911 30.9357 278.86 29.2917 277.351 28.2676C275.842 27.2434 273.659 26.7314 270.802 26.7314C268.323 26.7314 266.436 27.1087 265.142 27.8633C263.849 28.564 263.202 29.642 263.202 31.0974C263.202 32.1215 263.606 32.9839 264.415 33.6846C265.223 34.3854 266.463 34.8974 268.134 35.2208L279.211 37.323C284.277 38.3471 287.997 39.9911 290.368 42.2549C292.74 44.5188 293.926 47.5912 293.926 51.4721C293.926 56.4849 292.066 60.3927 288.347 63.1956C284.682 65.9985 279.399 67.3999 272.5 67.3999Z" fill="#0E1909"/>
<path d="M299.577 66.2563V6.79187L312.998 6.79187V24.6983H313.321C314.884 22.1111 316.987 20.1706 319.628 18.877C322.269 17.5295 325.395 16.8557 329.007 16.8557C335.097 16.8557 339.922 18.7153 343.479 22.4345C347.09 26.0998 348.896 31.0317 348.896 37.2304V66.2563H335.475V39.7368C335.475 36.1793 334.505 33.4843 332.564 31.6516C330.678 29.7651 327.902 28.8218 324.236 28.8218C320.571 28.8218 317.768 29.7651 315.828 31.6516C313.941 33.4843 312.998 36.1793 312.998 39.7368V66.2563H299.577Z" fill="#0E1909"/>
<path d="M355.357 66.2563V17.745L368.778 17.745V66.2563H355.357Z" fill="#0E1909"/>
<path d="M381.773 75.6022V31.0048H375.143V17.745H388.726V25.6685H392.122C393.847 22.8657 396.137 20.6827 398.994 19.1195C401.905 17.5564 405.408 16.7748 409.505 16.7748C414.518 16.7748 418.749 17.8259 422.199 19.928C425.648 22.0302 428.263 24.9678 430.041 28.7409C431.82 32.514 432.709 36.9339 432.709 42.0006C432.709 47.0674 431.847 51.5142 430.122 55.3412C428.397 59.1143 425.891 62.0519 422.603 64.1541C419.315 66.2023 415.326 67.2265 410.637 67.2265C407.079 67.2265 404.034 66.5797 401.5 65.286C398.967 63.9385 396.973 62.0519 395.517 59.6264H395.194V75.6022L381.773 75.6022ZM406.998 55.5838C411.095 55.5838 414.167 54.371 416.216 51.9454C418.264 49.5199 419.288 46.2049 419.288 42.0006C419.288 37.7963 418.264 34.4814 416.216 32.0558C414.167 29.6303 411.095 28.4175 406.998 28.4175C403.387 28.4175 400.503 29.4416 398.347 31.4899C396.245 33.4842 395.194 36.2601 395.194 39.8176V44.1836C395.194 47.7411 396.245 50.544 398.347 52.5922C400.503 54.5866 403.387 55.5838 406.998 55.5838Z" fill="#0E1909"/>
<path d="M71.978 71.978C88.444 55.5121 88.444 28.8154 71.978 12.3495C76.0038 16.3752 76.8246 22.9013 74.9165 30.3823C79.3253 42.665 76.61 56.9309 66.7705 66.7705C56.9308 76.6101 42.6646 79.3255 30.3819 74.9166C22.9011 76.8245 16.3752 76.0037 12.3495 71.978C28.8154 88.444 55.5121 88.444 71.978 71.978Z" fill="#0E1909"/>
<path d="M17.557 66.7705C13.8067 63.0203 11.0914 58.627 9.41093 53.9456C7.50298 61.4265 8.32378 67.9523 12.3495 71.978C16.3752 76.0037 22.9011 76.8245 30.3819 74.9166C25.7005 73.2362 21.3072 70.5208 17.557 66.7705Z" fill="#0E1909"/>
<path d="M12.3495 12.3495C-4.11649 28.8154 -4.11649 55.5121 12.3495 71.978C8.32378 67.9523 7.50298 61.4265 9.41093 53.9456C5.00199 41.6629 7.71742 27.3967 17.5571 17.5571C27.3966 7.71747 41.6625 5.00219 53.9452 9.41103C61.4262 7.50295 67.9523 8.32371 71.978 12.3495C55.5121 -4.11649 28.8154 -4.11649 12.3495 12.3495Z" fill="#0E1909"/>
<path d="M74.9165 30.3823C76.8246 22.9013 76.0038 16.3752 71.978 12.3495C67.9523 8.32371 61.4262 7.50295 53.9452 9.41103C58.6267 11.0914 63.02 13.8068 66.7704 17.5571C70.5207 21.3075 73.2361 25.7008 74.9165 30.3823Z" fill="#0E1909"/>
<path d="M31.5995 31.5997C30.9799 32.2192 30.3755 32.8433 29.7867 33.4707C33.6554 40.1007 32.7484 48.7507 27.0656 54.4335L29.894 57.2619C35.5768 51.5791 44.2269 50.6721 50.8569 54.5408C51.4843 53.952 52.1083 53.3476 52.7279 52.7281C53.3474 52.1085 53.9518 51.4845 54.5405 50.8571C50.6718 44.2271 51.5789 35.5771 57.2616 29.8943L54.4332 27.0659C48.7504 32.7486 40.1004 33.6557 33.4705 29.787C32.8431 30.3757 32.219 30.9801 31.5995 31.5997Z" fill="#0E1909"/>
<path d="M54.3817 57.2619L57.2616 54.3819C57.2479 54.3682 57.2343 54.3545 57.2207 54.3408C56.1594 53.2725 55.266 52.1003 54.5405 50.8571C53.9518 51.4845 53.3474 52.1085 52.7279 52.7281C52.1083 53.3476 51.4843 53.952 50.8569 54.5408C52.1001 55.2662 53.2723 56.1596 54.3406 57.2209C54.3543 57.2345 54.368 57.2482 54.3817 57.2619Z" fill="#0E1909"/>
<path d="M29.9456 27.0659L27.0656 29.9458C27.0793 29.9595 27.093 29.9733 27.1067 29.987C28.1679 31.0553 29.0613 32.2275 29.7867 33.4707C30.3755 32.8433 30.9799 32.2192 31.5995 31.5997C32.219 30.9801 32.8431 30.3757 33.4705 29.787C32.2272 29.0616 31.055 28.1682 29.9867 27.1069C29.973 27.0933 29.9593 27.0796 29.9456 27.0659Z" fill="#0E1909"/>
<path fill-rule="evenodd" clip-rule="evenodd" d="M16.492 46.0023C15.7591 44.5419 15.1256 43.0748 14.594 41.6135C17.5574 36.4657 21.5328 31.2588 26.3958 26.3958C31.2588 21.5328 36.4657 17.5574 41.6135 14.594C45.8381 12.162 50.0229 10.4114 53.9452 9.41103C58.6267 11.0914 63.02 13.8068 66.7704 17.5571C62.3057 13.0925 54.4723 12.9985 46.0023 16.492C40.6895 18.6833 35.1262 22.286 29.9867 27.1069C31.055 28.1682 32.2272 29.0616 33.4705 29.787C40.1004 33.6557 48.7504 32.7486 54.4332 27.0659L57.2616 29.8943C51.5789 35.5771 50.6718 44.2271 54.5405 50.8571C55.266 52.1003 56.1594 53.2725 57.2207 54.3408C62.0415 49.2014 65.6443 43.6381 67.8355 38.3252C68.5685 39.7856 69.2019 41.2527 69.7335 42.7141C66.7701 47.8618 62.7947 53.0687 57.9317 57.9317C53.0687 62.7947 47.8618 66.7701 42.7141 69.7335C38.4893 72.1656 34.3043 73.9162 30.3819 74.9166C25.7005 73.2362 21.3072 70.5208 17.557 66.7705C22.0217 71.2353 29.8552 71.3291 38.3253 67.8356C43.638 65.6443 49.2012 62.0416 54.3406 57.2209C53.2723 56.1596 52.1001 55.2662 50.8569 54.5408C44.2269 50.6721 35.5768 51.5791 29.894 57.2619L27.0656 54.4335C32.7484 48.7507 33.6554 40.1007 29.7867 33.4707C29.0613 32.2275 28.1679 31.0553 27.1067 29.987C22.2859 35.1263 18.6833 40.6895 16.492 46.0023Z" fill="#0E1909"/>
</svg>
