<svg width="338" height="75" viewBox="0 0 338 75" fill="none" xmlns="http://www.w3.org/2000/svg">
<path d="M6.62986 74.8104L6.62986 27.2129H0L0 13.9532L13.5831 13.9532L13.5831 21.8767L16.9789 21.8767C18.7038 19.0738 20.9946 16.8908 23.8513 15.3277C26.762 13.7645 30.2656 12.983 34.3621 12.983C39.3749 12.983 43.6061 14.034 47.0558 16.1362C50.5055 18.2383 53.1197 21.176 54.8985 24.949C56.6772 28.7221 57.5666 33.142 57.5666 38.2088C57.5666 43.2755 56.7042 47.7223 54.9793 51.5493C53.2545 55.3224 50.7481 58.2601 47.4601 60.3622C44.1721 62.4105 40.1834 63.4346 35.494 63.4346C31.9365 63.4346 28.8911 62.7878 26.3577 61.4942C23.8244 60.1466 21.83 58.26 20.3747 55.8345H20.0513L20.0513 74.8104H6.62986ZM31.8557 51.7919C35.9522 51.7919 39.0245 50.5791 41.0728 48.1535C43.121 45.728 44.1452 42.4131 44.1452 38.2088C44.1452 34.0045 43.121 30.6895 41.0728 28.264C39.0245 25.8384 35.9522 24.6256 31.8557 24.6256C28.2443 24.6256 25.3606 25.6498 23.2045 27.698C21.1024 29.6924 20.0513 32.4683 20.0513 36.0258V40.3918C20.0513 43.9492 21.1024 46.7521 23.2045 48.8004C25.3606 50.7947 28.2443 51.7919 31.8557 51.7919Z" fill="#0E1909"/>
<path d="M67.1887 62.4644L67.1887 27.2129H60.5589V13.9532L74.142 13.9532V23.4937H77.5378C78.8314 20.0979 80.8797 17.5646 83.6825 15.8936C86.4854 14.2227 89.6386 13.3872 93.1422 13.3872L97.2656 13.3872V25.0299H92.5762C88.3719 25.0299 85.2726 26.2157 83.2783 28.5874C81.3378 30.959 80.3676 34.0853 80.3676 37.9662L80.3676 62.4644H67.1887Z" fill="#0E1909"/>
<path d="M125.415 63.4346C120.187 63.4346 115.632 62.4105 111.751 60.3622C107.87 58.2601 104.879 55.3224 102.777 51.5493C100.675 47.7223 99.6234 43.2216 99.6234 38.0471C99.6234 32.8725 100.648 28.4257 102.696 24.7065C104.744 20.9334 107.655 18.0497 111.428 16.0553C115.255 14.0071 119.756 12.983 124.93 12.983C129.997 12.983 134.336 13.9532 137.947 15.8936C141.613 17.8341 144.415 20.61 146.356 24.2214C148.296 27.8328 149.267 32.1449 149.267 37.1577V41.6854L112.479 41.6854C113.018 45.2968 114.392 48.0457 116.602 49.9323C118.812 51.8188 121.723 52.7621 125.334 52.7621C128.191 52.7621 130.455 52.277 132.126 51.3068C133.797 50.3366 134.983 48.8543 135.683 46.8599L149.105 46.8599C148.027 52.0344 145.413 56.104 141.262 59.0686C137.112 61.9792 131.829 63.4346 125.415 63.4346ZM112.802 32.7917H136.411C135.98 29.7193 134.794 27.4285 132.854 25.9193C130.913 24.3561 128.299 23.5746 125.011 23.5746C121.723 23.5746 119.028 24.3561 116.926 25.9193C114.878 27.4824 113.503 29.7732 112.802 32.7917Z" fill="#0E1909"/>
<path d="M176.914 63.6081C169.799 63.6081 164.166 62.1258 160.016 59.1612C155.92 56.1427 153.71 51.9384 153.386 46.5483H166.323C166.754 48.866 167.859 50.5909 169.637 51.7228C171.47 52.8547 174.084 53.4207 177.48 53.4207C183.032 53.4207 185.808 51.8845 185.808 48.8121C185.808 47.5724 185.377 46.6022 184.514 45.9014C183.706 45.1468 182.331 44.5809 180.391 44.2036L169.557 42.1014C159.854 40.2149 155.003 35.6602 155.003 28.4374C155.003 23.8019 156.863 20.1097 160.582 17.3607C164.301 14.5578 169.449 13.1564 176.025 13.1564C182.547 13.1564 187.721 14.5848 191.548 17.4416C195.375 20.2983 197.477 24.287 197.855 29.4077L184.918 29.4077C184.326 27.1438 183.274 25.4998 181.765 24.4757C180.256 23.4516 178.073 22.9395 175.216 22.9395C172.737 22.9395 170.85 23.3168 169.557 24.0714C168.263 24.7721 167.616 25.8502 167.616 27.3055C167.616 28.3296 168.02 29.192 168.829 29.8928C169.637 30.5935 170.877 31.1055 172.548 31.4289L183.625 33.5311C188.692 34.5552 192.411 36.1992 194.782 38.4631C197.154 40.7269 198.34 43.7993 198.34 47.6802C198.34 52.693 196.48 56.6009 192.761 59.4037C189.096 62.2066 183.814 63.6081 176.914 63.6081Z" fill="#0E1909"/>
<path d="M203.991 62.4644V0L217.412 0V20.9065L217.736 20.9065C219.299 18.3192 221.401 16.3788 224.042 15.0851C226.683 13.7376 229.809 13.0638 233.421 13.0638C239.512 13.0638 244.336 14.9234 247.893 18.6426C251.505 22.3079 253.31 27.2399 253.31 33.4385V62.4644H239.889V35.9449C239.889 32.3875 238.919 29.6924 236.978 27.8597C235.092 25.9732 232.316 25.0299 228.651 25.0299C224.985 25.0299 222.182 25.9732 220.242 27.8597C218.355 29.6924 217.412 32.3875 217.412 35.9449V62.4644H203.991Z" fill="#0E1909"/>
<path d="M259.771 62.4644V13.9532L273.193 13.9532V62.4644L259.771 62.4644Z" fill="#0E1909"/>
<path d="M286.187 74.8104V27.2129H279.557V13.9532L293.14 13.9532V21.8767H296.536C298.261 19.0738 300.551 16.8908 303.408 15.3277C306.319 13.7645 309.822 12.983 313.919 12.983C318.932 12.983 323.163 14.034 326.613 16.1362C330.062 18.2383 332.677 21.176 334.455 24.949C336.234 28.7221 337.124 33.142 337.124 38.2088C337.124 43.2755 336.261 47.7223 334.536 51.5493C332.811 55.3224 330.305 58.2601 327.017 60.3622C323.729 62.4105 319.74 63.4346 315.051 63.4346C311.493 63.4346 308.448 62.7878 305.915 61.4942C303.381 60.1466 301.387 58.26 299.932 55.8345H299.608V74.8104L286.187 74.8104ZM311.413 51.7919C315.509 51.7919 318.581 50.5791 320.63 48.1535C322.678 45.728 323.702 42.4131 323.702 38.2088C323.702 34.0045 322.678 30.6895 320.63 28.264C318.581 25.8384 315.509 24.6256 311.413 24.6256C307.801 24.6256 304.917 25.6498 302.761 27.698C300.659 29.6924 299.608 32.4683 299.608 36.0258V40.3918C299.608 43.9492 300.659 46.7521 302.761 48.8004C304.917 50.7947 307.801 51.7919 311.413 51.7919Z" fill="#0E1909"/>
</svg>
